<svg xmlns="http://www.w3.org/2000/svg" xmlns:xlink="http://www.w3.org/1999/xlink" width="2000" zoomAndPan="magnify" viewBox="0 0 1500 1499.999933" height="2000" preserveAspectRatio="xMidYMid meet" version="1.0"><path fill="#ffffff" d="M 450 1200 C 367.125 1200 300.75 1267.125 300.75 1350 C 300.75 1432.875 367.125 1500 450 1500 C 532.875 1500 600 1432.875 600 1350 C 600 1267.125 532.875 1200 450 1200 Z M 0 0 L 0 150 L 150 150 L 419.625 718.875 L 318.375 902.625 C 306.75 924.375 300 948.75 300 975 C 300 1057.875 367.125 1125 450 1125 L 1350 1125 L 1350 975 L 481.875 975 C 471.375 975 463.125 966.75 463.125 956.25 C 463.125 952.875 463.875 949.875 465.375 947.25 L 532.5 825 L 1091.25 825 C 1147.5 825 1196.625 793.875 1222.5 747.75 L 1490.625 261 C 1496.625 250.5 1500 238.125 1500 225 C 1500 183.375 1466.25 150 1425 150 L 316.125 150 L 244.875 0 Z M 1200 1200 C 1117.125 1200 1050.75 1267.125 1050.75 1350 C 1050.75 1432.875 1117.125 1500 1200 1500 C 1282.875 1500 1350 1432.875 1350 1350 C 1350 1267.125 1282.875 1200 1200 1200 Z M 1200 1200 " fill-opacity="1" fill-rule="nonzero"/></svg>