<svg xmlns="http://www.w3.org/2000/svg" xmlns:xlink="http://www.w3.org/1999/xlink" width="2000" zoomAndPan="magnify" viewBox="0 0 1500 1499.999933" height="2000" preserveAspectRatio="xMidYMid meet" version="1.0"><defs><g/><clipPath id="f47c46d297"><path d="M 0 0 L 1499.992188 0 L 1499.992188 1499.992188 L 0 1499.992188 Z M 0 0 " clip-rule="nonzero"/></clipPath><clipPath id="2fd2228433"><path d="M 1499.992188 75 L 1499.992188 1424.992188 C 1499.992188 1444.882812 1492.089844 1463.960938 1478.023438 1478.023438 C 1463.960938 1492.089844 1444.882812 1499.992188 1424.992188 1499.992188 L 75 1499.992188 C 55.109375 1499.992188 36.03125 1492.089844 21.96875 1478.023438 C 7.902344 1463.960938 0 1444.882812 0 1424.992188 L 0 75 C 0 55.109375 7.902344 36.03125 21.96875 21.96875 C 36.03125 7.902344 55.109375 0 75 0 L 1424.992188 0 C 1444.882812 0 1463.960938 7.902344 1478.023438 21.96875 C 1492.089844 36.03125 1499.992188 55.109375 1499.992188 75 Z M 1499.992188 75 " clip-rule="nonzero"/></clipPath><clipPath id="34907bdd65"><path d="M 0 0 L 1499.992188 0 L 1499.992188 1499.992188 L 0 1499.992188 Z M 0 0 " clip-rule="nonzero"/></clipPath><clipPath id="8e3abd0e22"><path d="M 1499.992188 75 L 1499.992188 1424.992188 C 1499.992188 1444.882812 1492.089844 1463.960938 1478.023438 1478.023438 C 1463.960938 1492.089844 1444.882812 1499.992188 1424.992188 1499.992188 L 75 1499.992188 C 55.109375 1499.992188 36.03125 1492.089844 21.96875 1478.023438 C 7.902344 1463.960938 0 1444.882812 0 1424.992188 L 0 75 C 0 55.109375 7.902344 36.03125 21.96875 21.96875 C 36.03125 7.902344 55.109375 0 75 0 L 1424.992188 0 C 1444.882812 0 1463.960938 7.902344 1478.023438 21.96875 C 1492.089844 36.03125 1499.992188 55.109375 1499.992188 75 Z M 1499.992188 75 " clip-rule="nonzero"/></clipPath><clipPath id="0520f27a82"><rect x="0" width="1500" y="0" height="1500"/></clipPath><clipPath id="7ee76ddcd4"><rect x="0" width="1091" y="0" height="971"/></clipPath><clipPath id="d797628d54"><path d="M 501.777344 74 L 998.277344 74 L 998.277344 736.125 L 501.777344 736.125 Z M 501.777344 74 " clip-rule="nonzero"/></clipPath></defs><g clip-path="url(#f47c46d297)"><g clip-path="url(#2fd2228433)"><g transform="matrix(1, 0, 0, 1, 0, 0.000000000000112861)"><g clip-path="url(#0520f27a82)"><g clip-path="url(#34907bdd65)"><g clip-path="url(#8e3abd0e22)"><path fill="#ffffff" d="M 0 0 L 1499.992188 0 L 1499.992188 1499.992188 L 0 1499.992188 Z M 0 0 " fill-opacity="1" fill-rule="nonzero"/></g></g></g></g></g></g><g transform="matrix(1, 0, 0, 1, 176, 529)"><g clip-path="url(#7ee76ddcd4)"><g fill="#1800ad" fill-opacity="1"><g transform="translate(0.979376, 784.505593)"><g><path d="M 377.125 -65.90625 L 57.84375 -194.78125 L 57.84375 -284.859375 L 377.125 -413 L 377.125 -298.765625 L 281.921875 -265.078125 L 213.828125 -239.453125 L 281.921875 -213.828125 L 377.125 -180.140625 Z M 377.125 -65.90625 "/></g></g></g><g fill="#1800ad" fill-opacity="1"><g transform="translate(366.388677, 784.505593)"><g><path d="M 54.921875 46.859375 L 251.90625 -559.46875 L 360.28125 -559.46875 L 162.5625 46.859375 Z M 54.921875 46.859375 "/></g></g></g><g fill="#1800ad" fill-opacity="1"><g transform="translate(712.026253, 784.505593)"><g><path d="M 57.84375 -65.90625 L 57.84375 -180.140625 L 153.046875 -213.828125 L 221.15625 -239.453125 L 153.046875 -265.078125 L 57.84375 -298.765625 L 57.84375 -413 L 377.125 -284.859375 L 377.125 -194.78125 Z M 57.84375 -65.90625 "/></g></g></g></g></g><g clip-path="url(#d797628d54)"><path fill="#1800ad" d="M 749.992188 74.089844 C 727.144531 74.089844 708.617188 92.617188 708.617188 115.464844 C 685.769531 115.464844 667.238281 133.992188 667.238281 156.839844 C 667.238281 179.6875 685.765625 198.179688 708.617188 198.179688 L 708.617188 280.929688 L 625.867188 280.929688 C 625.867188 258.082031 607.339844 239.554688 584.492188 239.554688 C 561.640625 239.554688 543.152344 258.078125 543.152344 280.929688 C 520.304688 280.929688 501.777344 299.457031 501.777344 322.304688 C 501.777344 345.152344 520.304688 363.679688 543.152344 363.679688 C 543.152344 386.527344 561.640625 405.054688 584.492188 405.054688 C 607.339844 405.054688 625.867188 386.527344 625.867188 363.679688 L 708.617188 363.679688 L 708.617188 611.886719 C 685.769531 611.886719 667.238281 630.414062 667.238281 653.265625 C 667.238281 676.113281 685.765625 694.640625 708.617188 694.640625 C 708.617188 717.488281 727.140625 736.015625 749.992188 736.015625 C 772.839844 736.015625 791.367188 717.488281 791.367188 694.640625 C 814.214844 694.640625 832.742188 676.113281 832.742188 653.265625 C 832.742188 630.414062 814.214844 611.890625 791.367188 611.890625 L 791.367188 363.679688 L 874.082031 363.679688 C 874.082031 386.527344 892.605469 405.054688 915.457031 405.054688 C 938.304688 405.054688 956.832031 386.527344 956.832031 363.679688 C 979.679688 363.679688 998.207031 345.152344 998.207031 322.304688 C 998.207031 299.457031 979.679688 280.929688 956.832031 280.929688 C 956.832031 258.082031 938.304688 239.554688 915.457031 239.554688 C 892.605469 239.554688 874.082031 258.078125 874.082031 280.929688 L 791.367188 280.929688 L 791.367188 198.179688 C 814.214844 198.179688 832.742188 179.6875 832.742188 156.839844 C 832.742188 133.992188 814.214844 115.464844 791.367188 115.464844 C 791.367188 92.617188 772.839844 74.089844 749.992188 74.089844 Z M 749.992188 74.089844 " fill-opacity="1" fill-rule="evenodd"/></g></svg>