<svg xmlns="http://www.w3.org/2000/svg" xmlns:xlink="http://www.w3.org/1999/xlink" width="2000" zoomAndPan="magnify" viewBox="0 0 1500 1499.999933" height="2000" preserveAspectRatio="xMidYMid meet" version="1.0"><defs><clipPath id="55b4178d64"><path d="M 450.386719 570.402344 L 1049.628906 570.402344 L 1049.628906 971.636719 L 450.386719 971.636719 Z M 450.386719 570.402344 " clip-rule="nonzero"/></clipPath><clipPath id="f496cdb41a"><path d="M 453 333.273438 L 1047 333.273438 L 1047 549.273438 L 453 549.273438 Z M 453 333.273438 " clip-rule="nonzero"/></clipPath></defs><rect x="-150" width="1800" fill="#ffffff" y="-149.999993" height="1799.99992" fill-opacity="1"/><rect x="-150" width="1800" fill="#ffffff" y="-149.999993" height="1799.99992" fill-opacity="1"/><g clip-path="url(#55b4178d64)"><path fill="#1f1f21" d="M 848.03125 870.644531 C 865.164062 870.648438 881.742188 876.742188 894.800781 887.832031 C 895.109375 888.09375 895.40625 888.371094 895.6875 888.664062 L 962.710938 958.527344 C 962.914062 958.730469 963.117188 958.9375 963.339844 959.140625 C 984.1875 978.222656 1017.253906 975.15625 1033.792969 952.175781 C 1075.453125 894.304688 1027.660156 754.425781 974.328125 630.601562 C 973.175781 627.992188 971.03125 625.945312 968.371094 624.917969 L 964.933594 623.558594 C 961.582031 622.25 959.105469 619.347656 958.347656 615.828125 C 956.207031 605.976562 949.675781 597.644531 940.617188 593.203125 C 885.542969 566.136719 851.027344 564.214844 832.746094 582.125 C 830.726562 584.167969 827.992188 585.339844 825.121094 585.394531 L 674.890625 585.394531 C 671.988281 585.347656 669.226562 584.15625 667.199219 582.082031 C 648.925781 564.171875 614.414062 566.09375 559.335938 593.164062 C 550.28125 597.601562 543.75 605.933594 541.609375 615.789062 C 540.871094 619.3125 538.414062 622.230469 535.066406 623.558594 L 531.628906 624.917969 C 528.953125 625.960938 526.804688 628.035156 525.667969 630.671875 C 472.351562 754.398438 424.558594 894.304688 466.214844 952.175781 C 482.757812 975.195312 515.839844 978.195312 536.671875 959.140625 C 536.890625 958.949219 537.09375 958.746094 537.300781 958.527344 L 604.324219 888.664062 C 604.605469 888.371094 604.898438 888.09375 605.210938 887.832031 C 618.269531 876.742188 634.84375 870.648438 651.980469 870.644531 Z M 848.03125 870.644531 " fill-opacity="1" fill-rule="nonzero"/></g><path fill="#383838" d="M 830.671875 751.101562 C 849.054688 751.101562 863.957031 765.996094 863.957031 784.371094 C 863.957031 802.746094 849.054688 817.640625 830.671875 817.640625 C 812.289062 817.640625 797.386719 802.746094 797.386719 784.371094 C 797.386719 765.996094 812.289062 751.101562 830.671875 751.101562 " fill-opacity="1" fill-rule="nonzero"/><path fill="#191919" d="M 830.671875 817.640625 C 812.289062 817.640625 797.386719 802.742188 797.386719 784.371094 C 797.386719 765.996094 812.289062 751.101562 830.671875 751.101562 C 849.054688 751.101562 863.957031 765.996094 863.957031 784.371094 L 863.957031 784.382812 C 863.949219 802.753906 849.050781 817.640625 830.671875 817.640625 M 830.671875 746.875 C 809.953125 746.875 793.160156 763.660156 793.160156 784.371094 C 793.160156 805.078125 809.953125 821.863281 830.671875 821.863281 C 851.382812 821.863281 868.179688 805.085938 868.183594 784.382812 C 868.191406 763.675781 851.402344 746.882812 830.683594 746.875 Z M 830.671875 746.875 " fill-opacity="1" fill-rule="nonzero"/><path fill="#383838" d="M 677.101562 739.1875 C 703.625 739.1875 725.128906 760.679688 725.128906 787.191406 C 725.128906 813.703125 703.625 835.195312 677.101562 835.195312 C 650.578125 835.195312 629.074219 813.703125 629.074219 787.191406 C 629.074219 760.679688 650.578125 739.1875 677.101562 739.1875 " fill-opacity="1" fill-rule="nonzero"/><path fill="#191919" d="M 677.101562 835.195312 C 650.578125 835.195312 629.074219 813.703125 629.074219 787.191406 C 629.074219 760.679688 650.578125 739.1875 677.101562 739.1875 C 703.625 739.1875 725.128906 760.679688 725.128906 787.191406 C 725.128906 813.703125 703.625 835.195312 677.101562 835.195312 M 677.101562 733.625 C 647.503906 733.625 623.511719 757.609375 623.511719 787.191406 C 623.511719 816.773438 647.503906 840.753906 677.101562 840.753906 C 706.699219 840.753906 730.691406 816.773438 730.691406 787.191406 C 730.691406 757.609375 706.699219 733.625 677.101562 733.625 " fill-opacity="1" fill-rule="nonzero"/><path fill="#898989" d="M 707.441406 773.042969 L 691.242188 773.042969 L 691.242188 756.867188 C 691.242188 752.347656 687.578125 748.6875 683.058594 748.6875 L 671.074219 748.6875 C 666.554688 748.6875 662.890625 752.347656 662.890625 756.867188 L 662.890625 773.042969 L 646.746094 773.042969 C 642.230469 773.042969 638.566406 776.707031 638.566406 781.222656 L 638.566406 793.203125 C 638.566406 797.71875 642.230469 801.378906 646.746094 801.378906 L 662.933594 801.378906 L 662.933594 817.558594 C 662.933594 822.074219 666.59375 825.734375 671.113281 825.734375 L 683.101562 825.734375 C 687.621094 825.734375 691.28125 822.074219 691.28125 817.558594 L 691.28125 801.339844 L 707.46875 801.339844 C 711.988281 801.339844 715.652344 797.679688 715.652344 793.164062 L 715.652344 781.183594 C 715.628906 776.667969 711.953125 773.027344 707.441406 773.042969 " fill-opacity="1" fill-rule="nonzero"/><path fill="#383838" d="M 709.035156 680.351562 C 716.160156 680.351562 721.9375 686.121094 721.9375 693.242188 C 721.9375 700.367188 716.160156 706.136719 709.035156 706.136719 C 701.910156 706.136719 696.136719 700.367188 696.136719 693.242188 C 696.136719 686.121094 701.910156 680.351562 709.035156 680.351562 " fill-opacity="1" fill-rule="nonzero"/><path fill="#ffffff" d="M 750 599.050781 C 765.207031 599.050781 777.53125 611.371094 777.53125 626.570312 C 777.53125 641.765625 765.207031 654.085938 750 654.085938 C 734.792969 654.085938 722.46875 641.765625 722.46875 626.570312 C 722.46875 611.371094 734.792969 599.050781 750 599.050781 " fill-opacity="1" fill-rule="nonzero"/><path fill="#383838" d="M 797.398438 680.351562 C 804.523438 680.351562 810.300781 686.121094 810.300781 693.242188 C 810.300781 700.367188 804.523438 706.136719 797.398438 706.136719 C 790.273438 706.136719 784.5 700.367188 784.5 693.242188 C 784.5 686.121094 790.273438 680.351562 797.398438 680.351562 " fill-opacity="1" fill-rule="nonzero"/><path fill="#191919" d="M 602.210938 656.878906 C 622.304688 656.878906 638.59375 673.160156 638.59375 693.242188 C 638.59375 713.328125 622.304688 729.605469 602.210938 729.605469 C 582.117188 729.605469 565.828125 713.328125 565.828125 693.242188 C 565.828125 673.160156 582.117188 656.878906 602.210938 656.878906 " fill-opacity="1" fill-rule="nonzero"/><path fill="#383838" d="M 602.210938 660.464844 C 620.324219 660.464844 635.007812 675.140625 635.007812 693.242188 C 635.007812 711.347656 620.324219 726.023438 602.210938 726.023438 C 584.097656 726.023438 569.417969 711.347656 569.417969 693.242188 C 569.417969 675.140625 584.097656 660.464844 602.210938 660.464844 " fill-opacity="1" fill-rule="nonzero"/><path fill="#16b7ef" d="M 868.183594 673.15625 C 879.285156 673.15625 888.285156 682.148438 888.285156 693.242188 C 888.285156 704.339844 879.285156 713.332031 868.183594 713.332031 C 857.082031 713.332031 848.085938 704.339844 848.085938 693.242188 C 848.085938 682.148438 857.082031 673.15625 868.183594 673.15625 " fill-opacity="1" fill-rule="nonzero"/><path fill="#00e530" d="M 908.382812 713.539062 C 919.484375 713.539062 928.484375 722.53125 928.484375 733.628906 C 928.484375 744.722656 919.484375 753.71875 908.382812 753.71875 C 897.28125 753.71875 888.285156 744.722656 888.285156 733.628906 C 888.285156 722.53125 897.28125 713.539062 908.382812 713.539062 " fill-opacity="1" fill-rule="nonzero"/><path fill="#ffef22" d="M 908.382812 632.769531 C 919.484375 632.769531 928.484375 641.765625 928.484375 652.859375 C 928.484375 663.957031 919.484375 672.949219 908.382812 672.949219 C 897.28125 672.949219 888.285156 663.957031 888.285156 652.859375 C 888.285156 641.765625 897.28125 632.769531 908.382812 632.769531 " fill-opacity="1" fill-rule="nonzero"/><path fill="#ea3b3b" d="M 948.582031 673.15625 C 959.683594 673.15625 968.683594 682.148438 968.683594 693.242188 C 968.683594 704.339844 959.683594 713.332031 948.582031 713.332031 C 937.484375 713.332031 928.484375 704.339844 928.484375 693.242188 C 928.484375 682.148438 937.484375 673.15625 948.582031 673.15625 " fill-opacity="1" fill-rule="nonzero"/><g clip-path="url(#f496cdb41a)"><path fill="#222c37" d="M 784.726562 398.636719 L 763.96875 398.636719 L 763.96875 446.613281 C 763.96875 458.921875 758.90625 468.757812 744.03125 468.757812 C 729.3125 468.917969 725.042969 458.789062 725.042969 445.972656 L 725.042969 398.679688 L 704.273438 398.679688 L 704.273438 451.195312 C 704.273438 466.386719 709.652344 487.984375 738.121094 488.207031 C 753.785156 488.367188 761.53125 480.769531 765.160156 473.964844 L 765.160156 485.503906 L 784.648438 485.503906 Z M 792.925781 485.453125 L 813.648438 485.453125 L 813.648438 437.535156 C 813.648438 425.359375 818.710938 415.554688 833.421875 415.386719 C 847.972656 415.386719 852.242188 425.359375 852.242188 438.324219 L 852.242188 485.453125 L 872.964844 485.453125 L 872.964844 433.101562 C 872.964844 417.761719 867.582031 396.089844 839.277344 395.929688 C 823.777344 395.769531 816.015625 403.367188 812.234375 410.171875 L 812.398438 398.628906 L 792.933594 398.628906 L 792.933594 485.445312 Z M 880.871094 386.917969 L 901.589844 386.917969 L 901.589844 368.402344 L 880.871094 368.402344 Z M 880.871094 485.445312 L 901.589844 485.445312 L 901.589844 398.628906 L 880.871094 398.628906 Z M 923.269531 485.457031 L 943.992188 485.457031 L 943.992188 414.605469 L 958.855469 414.605469 L 952.703125 398.628906 L 944.042969 398.628906 L 944.042969 368.402344 L 923.273438 368.402344 L 923.273438 398.640625 L 908.882812 398.640625 L 908.882812 414.617188 L 923.273438 414.617188 Z M 978.851562 515.824219 L 1000.988281 515.824219 L 1046.679688 398.636719 L 1024.535156 398.636719 L 1003.644531 456.355469 L 982.496094 398.636719 L 960.316406 398.636719 L 993.054688 482.152344 Z M 664.132812 419.054688 L 640.992188 333.226562 L 554.769531 356.238281 L 542.023438 378.644531 L 516.210938 378.464844 L 453.296875 441.289062 L 516.328125 504.101562 L 542.183594 503.90625 L 554.941406 526.3125 L 640.984375 549.3125 L 664.050781 463.496094 L 651.019531 441.273438 Z M 610.132812 365.375 L 572.332031 430.675781 L 496.734375 430.675781 L 544.324219 382.253906 Z M 572.332031 452.011719 L 610.132812 517.304688 L 544.265625 500.382812 L 496.675781 452.03125 L 572.273438 452.03125 Z M 590.730469 441.410156 L 628.601562 375.996094 L 646.878906 441.296875 L 628.601562 506.570312 Z M 590.730469 441.410156 " fill-opacity="1" fill-rule="nonzero"/></g></svg>