<svg xmlns="http://www.w3.org/2000/svg" xmlns:xlink="http://www.w3.org/1999/xlink" width="2000" zoomAndPan="magnify" viewBox="0 0 1500 1499.999933" height="2000" preserveAspectRatio="xMidYMid meet" version="1.0"><defs><clipPath id="b3d821f1c6"><path d="M 103.703125 365.746094 L 1395.953125 365.746094 L 1395.953125 1134.496094 L 103.703125 1134.496094 Z M 103.703125 365.746094 " clip-rule="nonzero"/></clipPath><clipPath id="78a16d7971"><path d="M 549.765625 597.203125 L 950 597.203125 L 950 997.703125 L 549.765625 997.703125 Z M 549.765625 597.203125 " clip-rule="nonzero"/></clipPath><clipPath id="6b66233337"><path d="M 388.054688 526.761719 L 611.554688 526.761719 L 611.554688 750 L 388.054688 750 Z M 388.054688 526.761719 " clip-rule="nonzero"/></clipPath><clipPath id="2532a23942"><path d="M 896 829 L 1117 829 L 1117 1050 L 896 1050 Z M 896 829 " clip-rule="nonzero"/></clipPath><clipPath id="98f19759f9"><path d="M 961.375 788.335938 L 1158.332031 893.976562 L 1052.6875 1090.933594 L 855.730469 985.292969 Z M 961.375 788.335938 " clip-rule="nonzero"/></clipPath><clipPath id="186b52da36"><path d="M 961.375 788.335938 L 1158.332031 893.976562 L 1052.6875 1090.933594 L 855.730469 985.292969 Z M 961.375 788.335938 " clip-rule="nonzero"/></clipPath></defs><g clip-path="url(#b3d821f1c6)"><path fill="#61c5ff" d="M 1394.910156 814.195312 C 1393.144531 796.613281 1388.757812 779.804688 1382.125 764.148438 C 1366.878906 728.066406 1339.808594 698.226562 1305.753906 679.464844 C 1291.632812 671.675781 1276.304688 665.785156 1260.121094 662.171875 C 1247.84375 659.390625 1235.058594 657.945312 1221.949219 657.945312 C 1212.777344 657.945312 1203.789062 658.640625 1195.015625 660.03125 C 1192.367188 660.433594 1189.71875 660.914062 1187.097656 661.449219 C 1187.097656 660.273438 1187.175781 659.121094 1187.175781 657.945312 C 1187.175781 647.960938 1186.347656 638.140625 1184.714844 628.609375 C 1170.777344 546.496094 1099.359375 483.972656 1013.308594 483.972656 C 997.445312 483.972656 982.066406 486.113281 967.484375 490.101562 C 953.628906 493.875 940.46875 499.335938 928.246094 506.269531 C 925.8125 507.605469 923.429688 509.023438 921.074219 510.496094 C 914.203125 469.867188 893.257812 434.03125 863.40625 408.148438 C 851.878906 398.164062 839.035156 389.683594 825.152344 382.964844 C 805.46875 373.460938 783.746094 367.546875 760.796875 366.101562 C 757.132812 365.859375 753.414062 365.753906 749.695312 365.753906 C 736.132812 365.753906 722.945312 367.304688 710.292969 370.25 C 663.964844 380.984375 624.75 410.261719 600.890625 449.847656 C 594.335938 460.660156 588.933594 472.25 584.867188 484.429688 C 582.351562 491.894531 580.347656 499.578125 578.875 507.445312 C 553.222656 492.539062 523.476562 483.972656 491.699219 483.972656 C 442.375 483.972656 397.863281 504.527344 366.21875 537.53125 C 356.804688 547.351562 348.511719 558.273438 341.609375 570.101562 C 326.496094 595.878906 317.828125 625.90625 317.828125 657.945312 C 317.828125 659.550781 317.910156 661.15625 317.9375 662.734375 C 304.9375 659.628906 291.402344 657.945312 277.441406 657.945312 C 273.023438 657.945312 268.664062 658.105469 264.359375 658.425781 C 246.703125 659.738281 229.800781 663.699219 214.019531 669.882812 C 177.15625 684.335938 146.449219 710.992188 126.867188 744.902344 C 118.523438 759.300781 112.210938 774.988281 108.277344 791.605469 C 105.203125 804.535156 103.570312 818.023438 103.570312 831.914062 C 103.570312 839.597656 104.078125 847.144531 105.042969 854.558594 C 107.046875 870.136719 111.140625 885.070312 117.023438 899.066406 L 117.023438 899.09375 C 131.816406 934.503906 158.003906 963.945312 190.984375 982.894531 C 202.273438 989.371094 214.363281 994.644531 227.070312 998.472656 C 243.011719 1003.289062 259.917969 1005.886719 277.441406 1005.886719 C 283.484375 1005.886719 289.449219 1005.5625 295.335938 1004.976562 L 295.359375 1004.976562 C 307.988281 1003.691406 320.15625 1001.042969 331.847656 997.1875 L 331.875 997.1875 C 347.386719 992.074219 361.964844 984.820312 375.207031 975.777344 C 382.992188 1064.660156 457.515625 1134.410156 548.382812 1134.410156 C 585.910156 1134.410156 620.628906 1122.472656 649.039062 1102.238281 C 677.445312 1122.472656 712.167969 1134.410156 749.695312 1134.410156 C 795.0625 1134.410156 836.335938 1116.984375 867.285156 1088.480469 C 872.3125 1083.90625 877.046875 1078.980469 881.488281 1073.8125 C 889.78125 1083.476562 899.113281 1092.203125 909.335938 1099.832031 C 938.328125 1121.535156 974.308594 1134.410156 1013.308594 1134.410156 C 1043.667969 1134.410156 1072.183594 1126.621094 1097.003906 1112.945312 C 1111.261719 1105.101562 1124.289062 1095.304688 1135.738281 1083.90625 C 1158.234375 1061.582031 1174.660156 1033.160156 1182.308594 1001.28125 C 1195.042969 1004.253906 1208.308594 1005.886719 1221.949219 1005.886719 C 1222.378906 1005.886719 1222.808594 1005.886719 1223.234375 1005.859375 C 1240.914062 1005.75 1257.980469 1002.996094 1274.03125 997.9375 C 1312.738281 985.8125 1345.636719 960.464844 1367.414062 927.222656 C 1376.773438 912.957031 1384.101562 897.246094 1388.945312 880.492188 C 1393.410156 865.078125 1395.820312 848.777344 1395.820312 831.914062 C 1395.820312 825.945312 1395.523438 820.03125 1394.910156 814.195312 Z M 1394.910156 814.195312 " fill-opacity="1" fill-rule="nonzero"/></g><g clip-path="url(#78a16d7971)"><path fill="#ffffff" d="M 935.644531 828.753906 C 943.5 828.753906 949.929688 822.324219 949.929688 814.46875 L 949.929688 779.925781 C 949.929688 772.070312 943.5 765.640625 935.644531 765.640625 L 920.8125 765.640625 C 912.953125 765.640625 904.640625 759.492188 902.328125 751.984375 L 889.671875 721.257812 C 885.957031 714.332031 887.460938 704.125 893.011719 698.570312 L 903.511719 688.074219 C 909.066406 682.515625 909.070312 673.425781 903.511719 667.867188 L 879.089844 643.445312 C 873.53125 637.886719 864.441406 637.886719 858.886719 643.445312 L 848.386719 653.945312 C 842.828125 659.5 832.613281 661 825.695312 657.28125 L 794.96875 644.628906 C 787.457031 642.320312 781.316406 634.003906 781.316406 626.144531 L 781.316406 611.3125 C 781.316406 603.457031 774.886719 597.027344 767.03125 597.027344 L 732.488281 597.027344 C 724.632812 597.027344 718.203125 603.457031 718.203125 611.3125 L 718.203125 626.144531 C 718.203125 634.003906 712.054688 642.320312 704.550781 644.628906 L 673.824219 657.28125 C 666.898438 661 656.691406 659.496094 651.136719 653.941406 L 640.640625 643.441406 C 635.082031 637.882812 625.992188 637.882812 620.433594 643.441406 L 596.011719 667.863281 C 590.453125 673.421875 590.453125 682.511719 596.011719 688.066406 L 606.515625 698.566406 C 612.074219 704.125 613.574219 714.332031 609.859375 721.257812 L 597.203125 751.984375 C 594.894531 759.492188 586.574219 765.636719 578.71875 765.636719 L 563.890625 765.636719 C 556.03125 765.636719 549.601562 772.066406 549.601562 779.921875 L 549.601562 814.46875 C 549.601562 822.324219 556.03125 828.753906 563.890625 828.753906 L 578.71875 828.753906 C 586.574219 828.753906 594.894531 834.898438 597.203125 842.40625 L 609.863281 873.136719 C 613.582031 880.058594 612.078125 890.269531 606.519531 895.824219 L 596.015625 906.328125 C 590.460938 911.878906 590.460938 920.96875 596.015625 926.527344 L 620.433594 950.949219 C 625.992188 956.507812 635.082031 956.503906 640.640625 950.949219 L 651.144531 940.445312 C 656.699219 934.894531 666.910156 933.390625 673.828125 937.109375 L 704.554688 949.765625 C 712.066406 952.074219 718.207031 960.386719 718.207031 968.25 L 718.207031 983.082031 C 718.207031 990.941406 724.636719 997.367188 732.492188 997.367188 L 767.035156 997.367188 C 774.890625 997.367188 781.320312 990.941406 781.320312 983.082031 L 781.320312 968.246094 C 781.320312 960.386719 787.464844 952.074219 794.972656 949.761719 L 825.699219 937.109375 C 832.621094 933.390625 842.832031 934.890625 848.386719 940.445312 L 858.894531 950.949219 C 864.445312 956.507812 873.542969 956.503906 879.09375 950.949219 L 903.515625 926.527344 C 909.070312 920.976562 909.074219 911.878906 903.515625 906.324219 L 893.015625 895.824219 C 887.460938 890.265625 885.960938 880.050781 889.675781 873.132812 L 902.328125 842.40625 C 904.636719 834.898438 912.953125 828.753906 920.816406 828.753906 Z M 749.757812 879.546875 C 704.28125 879.546875 667.410156 842.675781 667.410156 797.199219 C 667.410156 751.714844 704.28125 714.84375 749.757812 714.84375 C 795.238281 714.84375 832.113281 751.714844 832.113281 797.199219 C 832.113281 842.675781 795.238281 879.546875 749.757812 879.546875 Z M 749.757812 879.546875 " fill-opacity="1" fill-rule="nonzero"/></g><g clip-path="url(#6b66233337)"><path fill="#ffffff" d="M 603.15625 655.832031 C 607.535156 655.832031 611.121094 652.25 611.121094 647.871094 L 611.121094 628.617188 C 611.121094 624.234375 607.535156 620.652344 603.15625 620.652344 L 594.886719 620.652344 C 590.507812 620.652344 585.875 617.226562 584.585938 613.039062 L 577.527344 595.910156 C 575.457031 592.050781 576.296875 586.359375 579.390625 583.265625 L 585.246094 577.414062 C 588.339844 574.316406 588.34375 569.25 585.246094 566.152344 L 571.632812 552.535156 C 568.535156 549.4375 563.464844 549.4375 560.367188 552.535156 L 554.515625 558.390625 C 551.417969 561.488281 545.722656 562.324219 541.867188 560.25 L 524.738281 553.199219 C 520.554688 551.910156 517.128906 547.273438 517.128906 542.894531 L 517.128906 534.625 C 517.128906 530.246094 513.546875 526.664062 509.167969 526.664062 L 489.910156 526.664062 C 485.53125 526.664062 481.949219 530.246094 481.949219 534.625 L 481.949219 542.894531 C 481.949219 547.273438 478.523438 551.910156 474.339844 553.199219 L 457.210938 560.25 C 453.351562 562.324219 447.660156 561.484375 444.566406 558.386719 L 438.710938 552.535156 C 435.613281 549.4375 430.546875 549.4375 427.449219 552.535156 L 413.835938 566.148438 C 410.738281 569.246094 410.738281 574.3125 413.835938 577.410156 L 419.691406 583.261719 C 422.789062 586.359375 423.625 592.050781 421.554688 595.910156 L 414.5 613.039062 C 413.210938 617.226562 408.574219 620.648438 404.195312 620.648438 L 395.929688 620.648438 C 391.550781 620.648438 387.964844 624.234375 387.964844 628.613281 L 387.964844 647.871094 C 387.964844 652.25 391.550781 655.832031 395.929688 655.832031 L 404.195312 655.832031 C 408.574219 655.832031 413.210938 659.257812 414.5 663.441406 L 421.558594 680.574219 C 423.628906 684.429688 422.792969 690.125 419.695312 693.21875 L 413.839844 699.074219 C 410.742188 702.171875 410.742188 707.238281 413.839844 710.335938 L 427.449219 723.949219 C 430.546875 727.046875 435.613281 727.042969 438.710938 723.949219 L 444.566406 718.09375 C 447.664062 715 453.355469 714.160156 457.210938 716.234375 L 474.339844 723.289062 C 478.527344 724.574219 481.953125 729.210938 481.953125 733.59375 L 481.953125 741.859375 C 481.953125 746.242188 485.535156 749.824219 489.914062 749.824219 L 509.167969 749.824219 C 513.546875 749.824219 517.132812 746.242188 517.132812 741.859375 L 517.132812 733.589844 C 517.132812 729.210938 520.554688 724.574219 524.742188 723.285156 L 541.871094 716.234375 C 545.726562 714.160156 551.421875 714.996094 554.515625 718.09375 L 560.375 723.949219 C 563.46875 727.046875 568.539062 727.042969 571.632812 723.949219 L 585.246094 710.335938 C 588.34375 707.238281 588.34375 702.171875 585.246094 699.074219 L 579.394531 693.21875 C 576.296875 690.121094 575.460938 684.429688 577.53125 680.570312 L 584.585938 663.441406 C 585.871094 659.257812 590.507812 655.832031 594.890625 655.832031 Z M 499.539062 684.148438 C 474.1875 684.148438 453.632812 663.59375 453.632812 638.242188 C 453.632812 612.886719 474.1875 592.335938 499.539062 592.335938 C 524.890625 592.335938 545.445312 612.890625 545.445312 638.242188 C 545.445312 663.59375 524.890625 684.148438 499.539062 684.148438 Z M 499.539062 684.148438 " fill-opacity="1" fill-rule="nonzero"/></g><g clip-path="url(#2532a23942)"><g clip-path="url(#98f19759f9)"><g clip-path="url(#186b52da36)"><path fill="#ffffff" d="M 1089.917969 1003.75 C 1093.777344 1005.820312 1098.628906 1004.359375 1100.699219 1000.496094 L 1109.800781 983.53125 C 1111.871094 979.671875 1110.40625 974.820312 1106.546875 972.75 L 1099.261719 968.839844 C 1095.402344 966.769531 1092.9375 961.558594 1093.78125 957.261719 L 1095.660156 938.832031 C 1095.660156 934.453125 1099.089844 929.835938 1103.277344 928.570312 L 1111.203125 926.179688 C 1115.394531 924.910156 1117.792969 920.449219 1116.527344 916.253906 L 1110.964844 897.820312 C 1109.699219 893.628906 1105.234375 891.230469 1101.039062 892.496094 L 1093.113281 894.890625 C 1088.921875 896.15625 1083.507812 894.199219 1081.089844 890.550781 L 1069.328125 876.238281 C 1066.25 873.125 1065.421875 867.421875 1067.492188 863.5625 L 1071.402344 856.277344 C 1073.472656 852.417969 1072.007812 847.566406 1068.148438 845.496094 L 1051.179688 836.394531 C 1047.320312 834.324219 1042.46875 835.785156 1040.398438 839.648438 L 1036.492188 846.933594 C 1034.421875 850.792969 1029.207031 853.257812 1024.914062 852.417969 L 1006.484375 850.535156 C 1002.105469 850.539062 997.484375 847.109375 996.222656 842.914062 L 993.832031 834.992188 C 992.566406 830.796875 988.101562 828.402344 983.90625 829.667969 L 965.472656 835.230469 C 961.28125 836.496094 958.886719 840.960938 960.152344 845.15625 L 962.542969 853.082031 C 963.808594 857.273438 961.855469 862.683594 958.207031 865.105469 L 943.894531 876.867188 C 940.78125 879.945312 935.078125 880.773438 931.21875 878.703125 L 923.933594 874.796875 C 920.074219 872.726562 915.222656 874.191406 913.152344 878.050781 L 904.050781 895.019531 C 901.980469 898.878906 903.445312 903.730469 907.304688 905.800781 L 914.585938 909.707031 C 918.445312 911.777344 920.914062 916.988281 920.070312 921.285156 L 918.191406 939.71875 C 918.195312 944.09375 914.765625 948.714844 910.574219 949.980469 L 902.644531 952.371094 C 898.453125 953.636719 896.058594 958.101562 897.324219 962.292969 L 902.882812 980.726562 C 904.148438 984.917969 908.617188 987.3125 912.808594 986.050781 L 920.734375 983.65625 C 924.929688 982.394531 930.339844 984.34375 932.757812 987.992188 L 944.519531 1002.308594 C 947.597656 1005.421875 948.425781 1011.125 946.355469 1014.984375 L 942.445312 1022.269531 C 940.375 1026.132812 941.839844 1030.984375 945.699219 1033.050781 L 962.667969 1042.152344 C 966.527344 1044.222656 971.378906 1042.761719 973.449219 1038.898438 L 977.359375 1031.613281 C 979.429688 1027.753906 984.636719 1025.285156 988.933594 1026.128906 L 1007.363281 1028.007812 C 1011.742188 1028.003906 1016.363281 1031.433594 1017.625 1035.625 L 1020.019531 1043.554688 C 1021.285156 1047.75 1025.753906 1050.140625 1029.945312 1048.878906 L 1048.375 1043.316406 C 1052.566406 1042.050781 1054.964844 1037.585938 1053.699219 1033.390625 L 1051.308594 1025.464844 C 1050.042969 1021.273438 1051.996094 1015.859375 1055.644531 1013.441406 L 1069.957031 1001.679688 C 1073.070312 998.597656 1078.773438 997.773438 1082.636719 999.84375 Z M 985.226562 979.726562 C 962.882812 967.742188 954.488281 939.914062 966.46875 917.574219 C 978.453125 895.230469 1006.28125 886.835938 1028.621094 898.816406 C 1050.960938 910.800781 1059.363281 938.628906 1047.378906 960.972656 C 1035.394531 983.3125 1007.566406 991.707031 985.226562 979.726562 Z M 985.226562 979.726562 " fill-opacity="1" fill-rule="nonzero"/></g></g></g></svg>